HIERARCHY
ROOT Hips
{
	OFFSET -0.179506 -22.333345 2.821913
	CHANNELS 6 Xposition Yposition Zposition Zrotation Yrotation Xrotation 
	JOINT LeftUpLeg
	{
		OFFSET 6.951974 -9.140623 -0.681533
		CHANNELS 3 Zrotation Yrotation Xrotation
		JOINT LeftLeg
		{
			OFFSET 3.427654 -37.519855 -0.449580
			CHANNELS 3 Zrotation Yrotation Xrotation
			JOINT LeftFoot
			{
				OFFSET -1.359570 -39.796059 -4.369333
				CHANNELS 3 Zrotation Yrotation Xrotation
				JOINT LeftToe
				{
					OFFSET 2.635814 -5.579078 11.928840
					CHANNELS 3 Zrotation Yrotation Xrotation
					End Site
					{
						OFFSET 0.000000 0.000000 0.000000
					}
				}
			}
		}
	}
	JOINT RightUpLeg
	{
		OFFSET -6.767048 -9.052170 -0.431982
		CHANNELS 3 Zrotation Yrotation Xrotation
		JOINT RightLeg
		{
			OFFSET -3.829005 -38.256897 -0.885003
			CHANNELS 3 Zrotation Yrotation Xrotation
			JOINT RightFoot
			{
				OFFSET 1.577377 -39.841461 -4.231180
				CHANNELS 3 Zrotation Yrotation Xrotation
				JOINT RightToe
				{
					OFFSET -2.537174 -4.814398 12.334795
					CHANNELS 3 Zrotation Yrotation Xrotation
					End Site
					{
						OFFSET 0.000000 0.000000 0.000000
					}
				}
			}
		}
	}
	JOINT Spine
	{
		OFFSET -0.253288 10.896323 -2.669631
		CHANNELS 3 Zrotation Yrotation Xrotation
		JOINT Spine1
		{
			OFFSET 0.548704 13.518043 0.109247
			CHANNELS 3 Zrotation Yrotation Xrotation
			JOINT Spine2
			{
				OFFSET 0.145701 5.292222 2.542457
				CHANNELS 3 Zrotation Yrotation Xrotation
				JOINT Neck
				{
					OFFSET -0.277840 21.387037 -4.285703
					CHANNELS 3 Zrotation Yrotation Xrotation
					JOINT Head
					{
						OFFSET 0.515184 6.496960 5.134897
						CHANNELS 3 Zrotation Yrotation Xrotation
						End Site
						{
							OFFSET 0.000000 0.000000 0.000000
						}
					}
				}
				JOINT LeftShoulder
				{
					OFFSET 7.884473 12.174932 -3.408961
					CHANNELS 3 Zrotation Yrotation Xrotation
					JOINT LeftArm
					{
						OFFSET 9.097692 3.046888 -0.886815
						CHANNELS 3 Zrotation Yrotation Xrotation
						JOINT LeftForeArm
						{
							OFFSET 25.961220 -1.277207 -2.745643
							CHANNELS 3 Zrotation Yrotation Xrotation
							JOINT LeftHand
							{
								OFFSET 24.923361 0.898606 -0.117091
								CHANNELS 3 Zrotation Yrotation Xrotation
								End Site
								{
									OFFSET 0.000000 0.000000 0.000000
								}
							}
						}
					}
				}
				JOINT RightShoulder
				{
					OFFSET -8.175920 11.883285 -3.861528
					CHANNELS 3 Zrotation Yrotation Xrotation
					JOINT RightArm
					{
						OFFSET -9.601238 3.255117 -0.914307
						CHANNELS 3 Zrotation Yrotation Xrotation
						JOINT RightForeArm
						{
							OFFSET -25.374195 -1.332924 -2.140099
							CHANNELS 3 Zrotation Yrotation Xrotation
							JOINT RightHand
							{
								OFFSET -25.529810 0.777228 -0.555919
								CHANNELS 3 Zrotation Yrotation Xrotation
								End Site
								{
									OFFSET 0.000000 0.000000 0.000000
								}
							}
						}
					}
				}
			}
		}
	}
}
MOTION
Frames: 6
Frame Time: 0.033333
-68.237610 35.031891 83.058968 -132.183351 12.121606 86.842098 4.953638 -7.073827 -42.810286 -9.662097 18.695257 77.006163 12.860377 3.366053 -23.940840 nan nan nan -6.410266 -4.087506 5.150331 5.190561 -0.252689 37.904781 14.040282 0.372694 -25.865387 nan nan nan 5.645474 14.354254 20.919369 0.948413 4.637484 -2.873617 -0.222171 9.365851 -0.784498 0.228786 -1.606436 -6.927071 -0.229041 -1.990999 -19.232329 -12.560290 14.962034 2.454871 -45.401478 27.927671 16.318543 -152.564376 -76.883716 177.113705 -15.616119 -29.124611 -19.065578 17.389248 12.437736 -2.580582 32.937499 27.000139 4.368222 -172.951288 69.806397 -158.772044 11.242621 20.124629 -8.186654 
-69.707222 36.337322 83.627548 -131.636140 11.983474 87.247862 4.809396 -6.889854 -43.558555 -9.862980 19.424574 73.625580 13.122679 3.214617 -23.108536 nan nan nan -6.402158 -4.334884 7.237288 4.789494 -0.053518 35.541433 15.099477 0.212337 -23.673411 nan nan nan 5.164777 15.218696 19.950502 0.941473 4.871824 -1.980791 -0.341359 9.636055 -1.168646 0.934992 -1.478434 -7.423160 -0.417944 -3.218574 -19.176295 -10.968824 14.890481 3.175761 -45.741015 28.777005 16.485872 -152.267060 -76.580502 176.804951 -15.248135 -29.476110 -20.508318 16.695853 13.119777 -2.435855 34.545567 27.401743 5.224223 -170.888012 68.950446 -156.507103 10.660928 20.462385 -9.462319 
-71.226364 37.632790 84.255898 -131.031010 12.059450 87.659173 4.776996 -6.534434 -44.008886 -10.018080 19.926277 70.178588 13.398692 3.157449 -22.377021 nan nan nan -6.152022 -4.515310 9.305457 4.429060 0.059133 33.103398 16.291922 0.003335 -20.986847 nan nan nan 4.701433 16.096203 18.865810 1.138664 5.089794 -0.807599 -0.384861 9.812270 -1.936087 1.706199 -1.489302 -7.984095 -0.765685 -4.423418 -18.750842 -9.559813 14.639424 4.107716 -46.238408 29.603486 16.406161 -151.861736 -76.206040 176.358268 -15.664255 -29.399342 -21.742993 15.954897 13.780277 -2.179218 36.040244 27.622794 5.874353 -169.756221 68.057706 -155.485016 10.656690 20.472316 -11.213347 
-72.798683 38.970894 84.900375 -130.230127 12.203483 88.104292 4.710175 -6.206927 -44.165281 -9.992252 20.270672 66.741099 13.554942 3.152802 -21.872751 nan nan nan -5.758663 -4.639884 11.432325 3.935179 -0.126721 30.571091 17.871545 -0.065850 -17.732290 nan nan nan 4.044460 16.953380 17.649971 1.541161 5.191566 0.311729 -0.316912 9.834552 -2.644579 2.494916 -1.295805 -8.642688 -1.166486 -5.608798 -18.311453 -8.197473 14.356168 5.169066 -46.850900 30.265059 16.175301 -150.908421 -75.694963 175.541353 -14.477112 -29.419141 -22.827691 15.263633 14.337935 -1.813304 37.490446 27.618567 6.601510 -168.976890 67.317795 -154.537289 7.566894 20.802624 -12.758776 
-74.467613 40.326180 85.545830 -129.168427 12.324517 88.533443 4.533566 -6.075332 -43.945314 -10.176716 20.689791 63.079220 13.289966 3.276456 -21.236884 nan nan nan -5.391700 -4.913222 13.718465 3.275877 -0.527238 27.913820 19.171576 -0.201125 -14.043065 nan nan nan 3.373436 17.586327 16.587060 1.936423 5.172827 1.023300 -0.207702 9.624524 -3.248905 3.168575 -0.834071 -9.042769 -1.394964 -6.441227 -17.978632 -6.871095 14.332991 6.384421 -47.852157 30.698986 15.494867 -151.362479 -75.196105 176.055883 -14.578851 -29.632354 -22.544029 14.858795 14.651422 -0.849919 38.625599 28.124690 7.048814 -169.987541 66.850087 -155.032175 7.668537 21.260852 -11.777868 
-76.197182 41.722267 86.173325 -128.239503 12.509341 89.090315 4.337714 -5.674296 -43.661361 -10.631641 20.982966 59.395522 13.021291 3.432305 -20.328089 nan nan nan -4.869494 -5.164108 15.681589 2.628794 -0.539331 25.403756 19.520990 -0.692531 -10.184552 nan nan nan 2.622254 18.244901 15.031539 2.447095 5.154534 2.211735 -0.196055 9.310054 -4.189177 3.966245 -0.356704 -9.326931 -1.747173 -6.945718 -17.611466 -5.510477 14.395985 7.649369 -48.997478 30.884495 14.660993 -151.576270 -74.781862 176.318494 -17.303683 -28.124474 -22.243464 14.818534 14.678179 0.270190 39.902834 28.973748 7.827925 -171.264558 66.892005 -155.436788 9.814340 19.819689 -10.977900 
